Coordinates
version=1
nRows=22
nColumns=24
inDegrees=yes

Units are S.I. units (second, meters, Newtons, ...)
Angles are in degrees.

endheader
time	pelvis_tilt	pelvis_list	pelvis_rotation	pelvis_tx	pelvis_ty	pelvis_tz	hip_flexion_r	hip_adduction_r	hip_rotation_r	knee_angle_r	ankle_angle_r	subtalar_angle_r	mtp_angle_r	hip_flexion_l	hip_adduction_l	hip_rotation_l	knee_angle_l	ankle_angle_l	subtalar_angle_l	mtp_angle_l	lumbar_extension	lumbar_bending	lumbar_rotation
      1.06216667	     -5.76513807	     -0.19063936	     -6.20291286	      0.01069934	      1.02940522	      0.34315722	    -10.03852742	      2.04519104	      1.05629763	    -11.33630482	     20.95111655	      4.25373563	      3.43844947	     32.85987591	     -3.58771102	     -5.64671542	     -3.59288507	     11.41458988	      5.76195199	      2.24831529	     -9.81559420	      4.41651975	      5.38809885
      1.06633333	     -5.79107508	     -0.18822558	     -6.29340288	      0.01688359	      1.02834474	      0.34292598	    -10.22649708	      1.94225813	      0.95688910	    -11.64165874	     20.96700490	      4.58540047	      3.89839564	     32.89537743	     -3.51344346	     -5.61840810	     -3.99735391	     11.36130464	      5.70918383	      2.26067578	     -9.74181147	      4.33708811	      5.38539305
      1.07050000	     -5.86756101	     -0.22744555	     -6.35906372	      0.02304959	      1.02721513	      0.34266532	    -10.36833068	      1.90228195	      0.93009379	    -11.93940309	     20.89692359	      4.73384342	      4.00068593	     33.00210149	     -3.47347743	     -5.48337849	     -4.46930668	     11.27917414	      5.66775057	      2.27228376	     -9.61622855	      4.32183283	      5.40232699
      1.07466667	     -5.93250218	     -0.22883152	     -6.43062412	      0.02928322	      1.02614169	      0.34240388	    -10.50239786	      1.81058782	      0.83475708	    -12.27497937	     20.85486734	      5.02090364	      4.16460156	     33.08410614	     -3.39903402	     -5.36650277	     -4.95538591	     11.14608508	      5.62607309	      2.30052710	     -9.48980667	      4.24942010	      5.40304385
      1.07883333	     -5.96162112	     -0.23072622	     -6.50003096	      0.03552217	      1.02516596	      0.34213574	    -10.67302936	      1.71443147	      0.75320822	    -12.60547673	     20.73033239	      5.23000268	      6.67798005	     33.11804291	     -3.31948111	     -5.20003563	     -5.44861019	     10.92451337	      5.50241353	      2.89495717	     -9.41289300	      4.18218702	      5.39485085
      1.08300000	     -6.03312788	     -0.22074745	     -6.55751106	      0.04181706	      1.02415228	      0.34186276	    -10.78984586	      1.61347735	      0.66606275	    -12.96290208	     20.62817334	      5.45916446	      6.72451044	     33.21655914	     -3.23354450	     -5.06251514	     -6.01250168	     10.73445441	      5.49939410	      2.90781528	     -9.26475194	      4.08688322	      5.38566776
      1.08716667	     -6.07869809	     -0.20323779	     -6.60706480	      0.04812099	      1.02321713	      0.34157035	    -10.92019410	      1.49849097	      0.54324745	    -13.34480924	     20.49418908	      5.73766599	      6.81258419	     33.28197356	     -3.13379163	     -4.88327144	     -6.58187683	     10.47070474	      5.46317411	      2.93659405	     -9.15762474	      3.97647232	      5.36909827
      1.09133333	     -6.13151930	     -0.17474072	     -6.65744130	      0.05443509	      1.02231521	      0.34126840	    -11.02307239	      1.36937055	      0.41331262	    -13.76408040	     20.35860440	      6.00980117	      6.97271840	     33.35923644	     -3.02697417	     -4.69847470	     -7.17743221	     10.15645381	      5.37789205	      2.99018239	     -9.03871845	      3.86302598	      5.34307029
      1.09550000	     -6.15735172	     -0.15126932	     -6.69716796	      0.06077711	      1.02152268	      0.34097581	    -11.16541840	      1.25096178	      0.33551936	    -14.15695897	     20.09462550	      6.12632076	      7.03541317	     33.41510726	     -2.92522173	     -4.53491693	     -7.80210546	      9.80890331	      5.36202697	      3.00788803	     -8.94475863	      3.74349214	      5.33135401
      1.09966667	     -6.25360948	     -0.09987593	     -6.73452034	      0.06713076	      1.02063411	      0.34062624	    -11.17835840	      1.09358625	      0.13978345	    -14.65929562	     19.96325802	      6.53265774	      7.31020420	     33.55472913	     -2.79866850	     -4.30459200	     -8.45476255	      9.41242418	      5.19382117	      3.09186590	     -8.77143231	      3.60093168	      5.27904886
      1.10383333	     -6.29302135	     -0.04582610	     -6.75635901	      0.07350337	      1.01991888	      0.34028728	    -11.26621548	      0.93902768	      0.01405362	    -15.11669978	     19.61228909	      6.66199702	     10.54891776	     33.61751565	     -2.65747771	     -4.01844602	     -9.07378526	      8.89488362	      4.93389892	      4.08099587	     -8.66136027	      3.42990329	      5.23657791
      1.10800000	     -6.34947568	      0.00219760	     -6.77997623	      0.07987525	      1.01921196	      0.33993091	    -11.30326754	      0.78458647	     -0.15853121	    -15.64408371	     19.32497324	      6.96544606	     10.62138781	     33.75831970	     -2.54518856	     -3.90390802	     -9.83822302	      8.52436797	      4.94135770	      4.08807943	     -8.53412484	      3.28162430	      5.19161901
      1.11216667	     -6.40621964	      0.06943383	     -6.79829228	      0.08625848	      1.01856399	      0.33955537	    -11.31377960	      0.60661927	     -0.34382745	    -16.21903759	     19.02362242	      7.25712189	     10.76909758	     33.89324381	     -2.41172585	     -3.73888867	    -10.59192141	      8.08523855	      4.81933035	      4.10233497	     -8.40215284	      3.10562665	      5.13839548
      1.11633333	     -6.46646997	      0.13595237	     -6.80810211	      0.09264455	      1.01797478	      0.33915623	    -11.30319170	      0.42947747	     -0.52477440	    -16.82000035	     18.67227527	      7.52905978	     10.97549305	     34.04508116	     -2.27977653	     -3.57004773	    -11.38039443	      7.64053548	      4.66852377	      4.12010915	     -8.26672711	      2.92760478	      5.08403975
      1.12050000	     -6.49302179	      0.20552370	     -6.80986598	      0.09901788	      1.01750656	      0.33874269	    -11.30939208	      0.24490999	     -0.70350694	    -17.44355459	     18.18283836	      7.71557816	     14.18404069	     34.15946549	     -2.13783526	     -3.35368678	    -12.16755284	      7.18168558	      4.42413447	      4.41693788	     -8.18571828	      2.74327818	      5.02598043
      1.12466667	     -6.54940942	      0.29184949	     -6.81909774	      0.10542734	      1.01704145	      0.33833837	    -11.24856885	      0.03887709	     -0.89531224	    -18.14037344	     17.77512783	      7.99689695	     14.25243141	     34.33867705	     -2.00632656	     -3.28421143	    -13.04015999	      6.79063183	      4.35727978	      4.41085426	     -8.05317923	      2.53189665	      4.96821296
      1.12883333	     -6.58890584	      0.37650143	     -6.82072039	      0.11180667	      1.01666082	      0.33789827	    -11.17273468	     -0.17239783	     -1.10500920	    -18.89314347	     17.32919936	      8.30100964	     14.41769561	     34.50083176	     -1.86997547	     -3.16879480	    -13.91784910	      6.41646819	      4.21111072	      4.40052067	     -7.95709954	      2.32874003	      4.90650136
      1.13300000	     -6.62736942	      0.46485628	     -6.81481200	      0.11820755	      1.01634139	      0.33743892	    -11.07656552	     -0.38969782	     -1.31327262	    -19.68072871	     16.83922668	      8.58697126	     14.64316216	     34.66952108	     -1.73162414	     -3.07118756	    -14.82076345	      6.06947559	      4.06228826	      4.38475635	     -7.84929982	      2.11526412	      4.84743016
      1.13716667	     -6.63946872	      0.57575301	     -6.80903708	      0.12461490	      1.01614627	      0.33697626	    -10.98177848	     -0.63795838	     -1.51211732	    -20.49812898	     16.21337039	      8.78644504	     17.94744241	     34.79009899	     -1.56462483	     -2.93497542	    -15.68841114	      5.74152724	      3.80463102	      4.17203728	     -7.77630595	      1.86121815	      4.77034685
      1.14133333	     -6.67050160	      0.65355230	     -6.80165120	      0.13098473	      1.01595231	      0.33649614	    -10.82863133	     -0.85265544	     -1.71113125	    -21.39445071	     15.64862357	      9.07842835	     18.02161444	     34.96633356	     -1.45122624	     -2.91433224	    -16.63858818	      5.48789203	      3.79430320	      4.15889835	     -7.69529691	      1.66946364	      4.73580893
      1.14550000	     -6.68357534	      0.75108691	     -6.79361407	      0.13736047	      1.01584722	      0.33599945	    -10.66105430	     -1.09802412	     -1.91908656	    -22.34411218	     15.05620954	      9.38233407	     18.17582866	     35.10520448	     -1.31289522	     -2.87345516	    -17.55675069	      5.26057660	      3.70082932	      4.13321499	     -7.63074657	      1.44306183	      4.68707239
      1.14966667	     -6.68715221	      0.85178671	     -6.78058938	      0.14372158	      1.01580331	      0.33548502	    -10.47010990	     -1.35251808	     -2.13015437	    -23.34919999	     14.43040314	      9.69018615	     18.41680515	     35.22447968	     -1.16897523	     -2.83685976	    -18.45763537	      5.06411565	      3.61296347	      4.09278747	     -7.58102677	      1.21071909	      4.63628099
